<?xml version="1.0" encoding="UTF-8" standalone="no"?>
<svg
   xmlns:dc="http://purl.org/dc/elements/1.1/"
   xmlns:cc="http://creativecommons.org/ns#"
   xmlns:rdf="http://www.w3.org/1999/02/22-rdf-syntax-ns#"
   xmlns:svg="http://www.w3.org/2000/svg"
   xmlns="http://www.w3.org/2000/svg"
   xmlns:sodipodi="http://sodipodi.sourceforge.net/DTD/sodipodi-0.dtd"
   xmlns:inkscape="http://www.inkscape.org/namespaces/inkscape"
   width="277"
   height="300"
   viewBox="0 0 2000 2169"
   version="1.0"
   id="svg2"
   sodipodi:version="0.32"
   inkscape:version="0.46"
   sodipodi:docname="2000px-Jamia_Millia_Islamia_Logo.svg"
   inkscape:output_extension="org.inkscape.output.svg.inkscape">
  <metadata
     id="metadata136">
    <rdf:RDF>
      <cc:Work
         rdf:about="">
        <dc:format>image/svg+xml</dc:format>
        <dc:type
           rdf:resource="http://purl.org/dc/dcmitype/StillImage" />
      </cc:Work>
    </rdf:RDF>
  </metadata>
  <defs
     id="defs134">
    <inkscape:perspective
       sodipodi:type="inkscape:persp3d"
       inkscape:vp_x="0 : 1355.625 : 1"
       inkscape:vp_y="0 : 1000 : 0"
       inkscape:vp_z="2500 : 1355.625 : 1"
       inkscape:persp3d-origin="1250 : 903.75 : 1"
       id="perspective138" />
  </defs>
  <sodipodi:namedview
     inkscape:window-height="669"
     inkscape:window-width="640"
     inkscape:pageshadow="2"
     inkscape:pageopacity="0.0"
     guidetolerance="10.0"
     gridtolerance="10.0"
     objecttolerance="10.0"
     borderopacity="1.0"
     bordercolor="#666666"
     pagecolor="#ffffff"
     id="base"
     showgrid="false"
     inkscape:zoom="0.17040111"
     inkscape:cx="1250"
     inkscape:cy="1355.625"
     inkscape:window-x="161"
     inkscape:window-y="95"
     inkscape:current-layer="svg2" />
  <g
     id="#25282bff">
    <path
       d="M 1047.29,61.09 C 1050.33,52.32 1052.36,43.01 1057.55,35.16 C 1082.9,103.09 1105.28,172.09 1131.26,239.78 C 1170.53,240.3 1209.75,242.94 1249.03,243.1 C 1284.17,244.94 1319.37,245.63 1354.49,248 C 1339.82,261.36 1323.59,272.83 1307.97,285.04 C 1270.94,314.05 1233.05,341.97 1196.27,371.3 C 1192.08,374.75 1186.97,377.46 1184.19,382.31 C 1184.48,390.95 1187.24,399.32 1189.58,407.59 C 1191.96,415.28 1194.18,423.02 1196.01,430.86 C 1212.8,490.44 1229.71,549.98 1245.87,609.74 C 1214.28,587.39 1182.37,565.51 1150.71,543.27 C 1118.02,520.13 1085.88,496.23 1052.61,473.94 C 1042.47,479.77 1033.22,486.93 1023.98,494.06 C 971.83,532.68 920.48,572.39 867.72,610.18 C 889.19,536.11 913.43,462.86 934.74,388.74 C 936.3,382.94 930.11,379.62 926.48,376.41 C 899.13,355.43 871.65,334.63 844.44,313.48 C 824.15,297.81 803.97,282.01 783.61,266.42 C 776.3,260.91 768.25,255.77 763.54,247.66 C 777.67,246.34 791.88,247.08 806.05,246.93 C 854.37,247.02 902.7,247.08 951.02,246.89 C 961.84,246.72 972.67,247.13 983.49,246.66 C 989.6,234.91 993.07,222.08 997.35,209.61 C 1014,160.11 1030.64,110.59 1047.29,61.09 M 1049.89,182.15 C 1048.57,188.71 1046.88,195.64 1048.74,202.27 C 1049.65,205.64 1052.25,208.15 1055.14,209.94 C 1060.63,202.21 1058.81,192.31 1057.36,183.61 C 1054.86,183.12 1052.38,182.63 1049.89,182.15 M 1064.57,230.73 C 1061.47,227.84 1058.41,224.92 1055.33,222.02 C 1052.94,225.54 1050.23,228.86 1046.91,231.54 C 1045.76,224.39 1045.48,216.96 1042.48,210.25 C 1040.93,210.51 1039.39,210.77 1037.86,211.04 C 1036.04,218.34 1034.35,225.96 1035.63,233.5 C 1036.53,237.98 1038.93,242.69 1043.17,244.78 C 1048.1,244.46 1051.18,240.03 1054.8,237.23 C 1058.8,239.5 1063.17,244.84 1068.15,242.18 C 1078.48,233.16 1077.05,214.15 1065.33,206.87 C 1064.73,214.81 1064.8,222.78 1064.57,230.73 M 1008.78,220.97 C 1004.83,228.36 1006.01,237.74 1010.24,244.76 C 1011.2,246.04 1012.03,248.17 1014,247.96 C 1019.03,247.77 1021.85,242.73 1023.34,238.53 C 1025.18,230.36 1023.65,221.75 1020.4,214.13 C 1015.71,214.41 1011.01,216.67 1008.78,220.97 M 1083.75,233.5 C 1082.86,241.84 1083.35,250.26 1084.84,258.51 C 1088.84,259.68 1094.73,258.59 1096.93,263 C 1101.21,270.61 1104.09,279.22 1103.94,288.04 C 1104.13,291.68 1102.03,295.07 1099.08,297.06 C 1096.9,298.74 1094.18,296.7 1091.99,296.02 C 1081.23,290.88 1075.43,279.87 1067.56,271.47 C 1064.36,281.46 1062.4,292.3 1055.77,300.74 C 1052.37,305.25 1047.04,307.83 1041.52,308.55 C 1036.13,301.2 1035.5,291.78 1035.46,282.99 C 1035.46,273.26 1035.07,263.11 1030.74,254.2 C 1029.51,251.37 1025.91,248.96 1023.02,251.01 C 1017.7,255.55 1014.19,261.74 1010.59,267.63 C 1005.07,277.02 999.03,287.16 988.57,291.68 C 985.76,288.08 982.96,284.47 980.04,280.96 C 978.67,289.97 978.72,299.46 982.32,307.98 C 992.51,305.94 1000.89,299.17 1006.99,291.01 C 1011.97,284.42 1016.54,276.88 1024.33,273.28 C 1025.27,284.54 1025.31,295.98 1028.12,306.98 C 1029.95,313.87 1032.47,321.18 1038.22,325.79 C 1041.38,328.43 1045.82,328.93 1049.64,327.5 C 1059.81,324.31 1065.76,314.78 1071.84,306.72 C 1077.09,310.65 1081.83,315.44 1087.87,318.2 C 1094.56,321.35 1102.81,320.08 1108.64,315.69 C 1115.75,310.53 1119.8,301.78 1119.7,293.06 C 1120.06,277.97 1112.36,264.5 1107.32,250.74 C 1105.23,244.55 1102.03,238.22 1096.24,234.74 C 1092.53,232.34 1087.87,232.16 1083.75,233.5 M 1124.3,291.15 C 1126.2,303.04 1134.68,313.58 1132.85,326.08 C 1121.77,329.94 1110.18,331.93 1098.93,335.14 C 1090.54,337.36 1082.7,341.14 1074.97,344.99 C 1072.56,346.3 1069.85,348.14 1069.5,351.1 C 1068.05,359.39 1068.32,369.13 1074.54,375.53 C 1086.1,387.86 1097.83,400.87 1103.38,417.16 C 1096.61,419.86 1089.39,422.59 1081.97,421.48 C 1070.43,419.71 1060.37,412.77 1052.65,404.28 C 1051.32,402.67 1049.43,401.24 1049.17,399.05 C 1047.93,391.45 1048.49,383.71 1047.97,376.06 C 1044.51,375.79 1041.05,375.64 1037.6,375.51 C 1033.05,380.57 1034.02,387.72 1033.5,393.97 C 1025.34,394.36 1017.25,392.29 1009.97,388.69 C 1006.22,391.17 1001.4,393.48 1000.58,398.41 C 999.18,405.42 1004.01,411.38 1006.41,417.56 C 1008.39,421.85 1008.56,427.42 1005.14,431.04 C 990.04,447.46 971.14,459.6 952.92,472.2 C 953.35,475.03 953.78,477.87 954.21,480.72 C 976.23,478.07 996.38,466.36 1011.74,450.68 C 1013.15,449.25 1013.81,447.3 1014.51,445.46 C 1017.53,436.92 1017.75,427.77 1019.47,418.94 C 1025.66,417.03 1032.02,415.67 1038.49,415.14 C 1041.69,422.24 1045.02,429.73 1051.22,434.76 C 1067.48,447.26 1090.22,447.41 1108.95,440.97 C 1115.16,436.11 1115.41,427.25 1115.06,420.02 C 1114.17,412.08 1115.43,403.63 1111.76,396.24 C 1106.05,384.51 1095.43,375.81 1090.66,363.54 C 1089.71,360.64 1089.77,356.3 1093.05,354.93 C 1106.9,347.84 1122.28,344.53 1137.57,342.29 C 1143.7,369.63 1147.28,397.65 1156.52,424.22 C 1160.87,417.37 1161.96,409.04 1161.6,401.07 C 1160.77,380.76 1153.52,361.55 1149.35,341.83 C 1165.26,333.21 1182.11,322.56 1201.04,324.98 C 1200.6,328.35 1199.62,331.75 1197.38,334.39 C 1192.18,340.66 1184.44,344.07 1179.08,350.17 C 1179.1,352.97 1179.17,355.77 1179.3,358.57 C 1182.72,358.14 1187.17,358.78 1189.26,355.33 C 1196.57,345.68 1205.36,337.15 1211.76,326.81 C 1214.36,322.72 1215.55,317.54 1214.27,312.8 C 1213.47,309.93 1210.9,307.73 1207.93,307.49 C 1194.54,305.75 1181.35,310.1 1169.11,315.08 C 1161.44,318.04 1154.09,322.79 1145.57,322.48 C 1146.4,316.14 1149.79,310.39 1150.06,303.96 C 1150.21,300.71 1148.48,297.85 1146.64,295.33 C 1140.53,286.92 1135.39,277.86 1130.58,268.65 C 1124.07,274.1 1123.53,283.32 1124.3,291.15 M 1000.94,344.84 C 993.07,348.99 984.3,351.24 976.64,355.77 C 972.85,360.76 971.52,367.14 969.92,373.08 C 973.22,374.13 976.54,375.17 979.84,376.26 C 979.49,378.48 979.29,380.93 977.61,382.61 C 974.56,385.85 970.06,386.92 966,388.31 C 965.83,390.27 965.67,392.23 965.52,394.19 C 974.33,394.99 984.31,392.03 989.12,384.14 C 991.85,377.56 988.98,370.48 988.65,363.73 C 1000.95,356.59 1014.82,352.09 1025.92,342.96 C 1027.46,341.58 1029.66,340.37 1029.89,338.09 C 1030.05,335.53 1029.54,332.99 1029.27,330.46 C 1027.06,330.17 1024.86,329.88 1022.67,329.58 C 1015.55,334.83 1008.82,340.73 1000.94,344.84 M 1120.04,378.92 C 1131.84,409.94 1127.53,444.1 1136.61,475.74 C 1141.8,471.07 1142.29,463.84 1143.2,457.37 C 1144.81,443.4 1143.05,429.36 1141.2,415.51 C 1139.87,406.29 1136.94,397.31 1136.55,387.96 C 1136.23,382.45 1137.89,376.88 1136.4,371.46 C 1134.17,362.7 1127.78,355.71 1120.77,350.35 C 1115.71,359.04 1116.49,369.83 1120.04,378.92 M 1030.36,449.43 C 1026.54,450.7 1024.51,454.57 1023.12,458.06 C 1021.72,461.55 1020.27,465.84 1022.82,469.2 C 1026.13,473.55 1031.52,476.6 1037.02,476.76 C 1044.74,476.14 1049.83,468.22 1050.22,461.02 C 1049.14,452.19 1038.36,447.21 1030.36,449.43 z"
       id="path5"
       style="opacity:1;fill:#25282b" />
    <path
       d="M 605.03,141.54 C 626.6,137.44 648.65,139.35 670.44,139.71 C 654.51,146.72 637.82,152.67 623.75,163.18 C 626.12,166.8 628.53,170.4 630.9,174.03 C 618.3,182.35 605.26,190.32 594.73,201.28 C 595.39,204.57 596.11,207.84 596.86,211.11 C 578.13,225.99 562.69,246.62 558.73,270.66 C 576.82,262.16 594.62,252.71 613.93,247.21 C 625.97,243.74 638.53,242.63 650.99,242.03 C 674.43,241.1 698.67,244.29 719.64,255.37 C 731.75,261.57 741.92,271.03 750.29,281.66 C 763.27,298.3 771.69,318.2 776.12,338.75 C 767.24,327.44 757.08,316.17 743.26,311.01 C 742.4,320.1 741.78,329.21 741.39,338.34 C 730.69,320.31 712.22,308.01 692.44,301.92 C 693.8,309.44 695.21,316.95 696.62,324.46 C 683.11,319.22 669.54,311.76 654.57,313.05 C 657,321.29 659.95,329.36 662.38,337.6 C 643.52,335.6 623.37,332.41 605.42,340.46 C 589.01,346.97 581.44,367.62 587.07,383.81 C 603.34,371.98 620.83,361.38 640.1,355.25 C 658.05,349.37 677.25,348.62 695.96,349.87 C 718.56,351.58 740.94,357.49 761.07,367.98 C 773.77,374.63 785.82,382.9 795.28,393.77 C 813.23,414.04 822.99,440.47 826.46,467.06 C 819.7,452.74 812.56,437.25 798.61,428.52 C 797.9,436.34 797.88,444.21 797.95,452.06 C 787.55,429.47 767.69,409.73 742.57,405.1 C 742.61,412.27 742.58,419.43 742.52,426.6 C 725.15,419.53 707,412.7 687.96,413.13 C 678.6,413.17 669.56,415.88 660.74,418.73 C 654.72,420.74 648.92,423.9 644.86,428.89 C 667.03,428.8 689.51,429.01 711.11,434.61 C 726.48,438.52 741.2,445.39 753.56,455.41 C 766.25,465.6 776.58,478.69 783.52,493.41 C 793.61,513.38 797.19,535.73 800.57,557.61 C 792.45,543.41 785.55,527.93 773.1,516.87 C 770.39,514.25 766.58,513.55 763.09,512.59 C 761.52,521.37 759.77,530.16 756.79,538.58 C 748.77,526.11 741.82,512.43 730.25,502.79 C 726.53,499.66 722.26,497.29 717.8,495.43 C 717.56,503.66 717.56,511.89 717.65,520.12 C 707.32,504.63 695.79,489.47 680.56,478.46 C 669.62,470.48 656.47,465.21 642.84,464.83 C 646.67,470.9 651.1,476.9 657.2,480.86 C 661.75,483.02 667.23,480.96 671.76,483.27 C 672.67,484.17 672.76,485.57 673.23,486.73 C 676.83,498.88 679.3,511.36 683.22,523.42 C 687.75,523.65 692.29,523.91 696.84,524.16 C 699.12,536.24 701.31,548.34 704.2,560.29 C 710.54,558.89 716.86,557.41 723.18,555.87 C 727.49,574.32 729.86,593.14 733.33,611.75 C 739.25,613.31 742.71,607.19 747.3,604.75 C 752.69,622.11 754.02,640.38 758.59,657.94 C 763.65,655.23 768.8,652.73 774.07,650.46 C 776.66,667.13 779.2,683.8 781.76,700.47 C 786.42,699.59 791.08,698.69 795.75,697.82 C 796.64,715.54 797.47,733.27 798.95,750.95 C 803.72,750.32 808.49,749.64 813.28,749.04 C 815.59,765.89 815.2,782.93 816.03,799.88 C 821.01,799.86 826,799.86 830.98,799.87 C 831.21,817.07 831.09,834.3 832.37,851.47 C 837.2,851.12 842.03,850.78 846.86,850.44 C 845.37,862.6 841.94,874.45 840.95,886.67 C 867.79,888.13 894.7,890.49 920.97,896.41 C 937.19,900.25 953.29,904.68 969.09,910 C 989.74,917.02 1009.86,925.46 1029.88,934.09 C 1033.39,935.37 1037.04,937.27 1040.9,936.49 C 1047.57,935.34 1053.73,932.36 1060.12,930.21 C 1104.7,913.75 1152.55,906.33 1200.03,908.05 C 1210.13,908.46 1220.23,909.01 1230.35,909.18 C 1229.97,893.62 1228.97,878.05 1226.72,862.64 C 1230.68,863.9 1234.63,865.18 1238.6,866.47 C 1240.79,850.69 1242.03,834.8 1244.08,819.01 C 1248.62,820.55 1253.15,822.1 1257.7,823.65 C 1259.79,804.89 1261.92,786.12 1263.08,767.27 C 1267.37,768.73 1271.68,770.09 1276.05,771.33 C 1280.67,751.51 1279.64,731.03 1280.45,710.84 C 1287.28,713.57 1293.51,717.51 1299.83,721.23 C 1303.8,704.69 1302,687.54 1304.15,670.79 C 1309.18,673.34 1314.2,675.94 1319.24,678.51 C 1322.52,659.21 1325.53,639.88 1328.34,620.51 C 1333.14,624.4 1337.88,628.36 1342.69,632.24 C 1348.28,616.82 1348.17,600.03 1353.74,584.6 C 1359.33,584.4 1364.93,584.31 1370.54,584.08 C 1371.15,574.45 1371.81,564.83 1372.43,555.21 C 1377.57,554.27 1382.75,553.56 1387.96,553.04 C 1390.53,546.64 1392.67,540.08 1394.89,533.55 C 1398.86,533.45 1402.83,533.37 1406.81,533.31 C 1411.3,525.2 1415.84,517.04 1418.74,508.2 C 1400.46,510.78 1384.37,521.93 1373.45,536.51 C 1369.97,540.98 1366.83,545.77 1362.82,549.8 C 1360.42,552.8 1355.39,551.46 1353.69,548.36 C 1350.77,543.4 1350.58,537.42 1348.34,532.18 C 1339.04,540.86 1332.89,552.16 1325.01,562.02 C 1321.93,565.93 1316.76,566.82 1312.35,568.43 C 1311.92,559.11 1312.84,549.53 1309.82,540.53 C 1296.52,553.92 1285.3,569.19 1272.11,582.68 C 1270.49,560.02 1274.35,536.22 1287,516.98 C 1295.31,504.87 1305.77,494.24 1317.59,485.54 C 1336.62,471.5 1360.15,462.96 1383.98,464.03 C 1398.72,464.26 1412.68,469.69 1427.22,471.42 C 1412.78,458.07 1393.49,450.61 1374.02,448.99 C 1359.37,447.1 1345.7,453.84 1332.67,459.52 C 1330.68,453.9 1328.73,448.25 1326.75,442.63 C 1310.5,450.98 1296.17,462.64 1283.43,475.67 C 1282.14,472.09 1280.86,468.5 1279.58,464.92 C 1273.92,465.71 1268.74,468.64 1264.9,472.84 C 1259.85,478.16 1256.16,484.55 1251.7,490.34 C 1251.67,467.6 1258.39,444.44 1272.63,426.49 C 1280.93,416.46 1290.9,407.73 1302.15,401.13 C 1322.45,389.21 1346.49,384.03 1369.92,385.89 C 1401.32,387.21 1429.85,401.89 1457.39,415.65 C 1465.35,420.69 1472.11,427.64 1480.95,431.29 C 1480.45,415.65 1476.12,399.82 1466.83,387.08 C 1461.85,380.04 1453.41,376.25 1445.08,375.06 C 1434.91,373.63 1424.64,374.77 1414.45,375.12 C 1415.71,367.23 1417.12,359.35 1417.79,351.37 C 1402.13,350.21 1387.38,357.39 1374.94,366.21 C 1376.77,356.64 1378.82,347.09 1379.88,337.4 C 1360.45,340.42 1345.38,354.55 1333.19,369.01 C 1333.6,360.93 1333.91,352.77 1332.58,344.75 C 1318.13,352.46 1306.94,364.67 1294.2,374.71 C 1294.26,354.83 1300.63,334.74 1313.27,319.25 C 1320.42,310.16 1330.08,303.46 1340.28,298.21 C 1362.21,286.68 1387.28,281.01 1412.04,282.51 C 1427.68,283.32 1442.98,287.55 1457.36,293.62 C 1475.89,301.87 1491.98,314.43 1508.66,325.76 C 1508.7,300.29 1492.56,277.46 1472.03,263.65 C 1475.28,261.03 1478.54,258.42 1481.81,255.81 C 1476.36,240.22 1461.51,230.68 1446.89,224.81 C 1448.22,219.54 1446.85,213.86 1443.27,209.79 C 1432.94,197.43 1417.19,192.21 1404.07,183.63 C 1427.47,177.41 1452.87,180.12 1474.84,190.1 C 1489.46,197.02 1503.29,205.83 1515,217.05 C 1539.45,240.2 1555.6,271.39 1562.43,304.22 C 1571.96,301.54 1577.72,292.84 1585.98,288.03 C 1616.55,269.67 1654.86,265.32 1689.02,275.16 C 1704.52,280.17 1717.58,291.94 1724.55,306.61 C 1730.6,319.27 1735.35,333.1 1734.36,347.33 C 1731.53,347.61 1728.71,347.89 1725.92,348.16 C 1719.35,337.71 1712.8,324.98 1699.79,321.75 C 1699.69,328.42 1699.81,335.08 1699.96,341.75 C 1684.95,331.03 1668.19,320.91 1649.25,320.16 C 1650.45,326.03 1651.71,331.89 1652.93,337.76 C 1634.04,333.67 1613.39,332.22 1595.36,340.45 C 1584.86,345.73 1573.89,351.5 1567.06,361.44 C 1579.61,360.74 1591.79,357.39 1604.2,355.7 C 1642.43,351.29 1682.47,357.78 1715.99,377.18 C 1735.58,388.79 1752.93,404.05 1767.81,421.25 C 1789.97,449.71 1798.26,488.57 1789.26,523.55 C 1787,531.88 1785.93,540.87 1780.73,548.04 C 1776.21,530.11 1771.84,512.09 1765.44,494.71 C 1758.31,499.35 1753.04,506.38 1745.52,510.49 C 1742.79,494.87 1741,479.09 1738.39,463.45 C 1736.74,455.27 1736.05,446.19 1730.4,439.57 C 1728.27,436.89 1724.89,435.8 1721.6,435.62 C 1721.62,442.59 1721.75,449.57 1721.13,456.53 C 1718.23,456.45 1715.36,456.23 1712.52,455.83 C 1706.32,439.78 1696.76,422.58 1679.44,416.75 C 1679.49,424.43 1679.7,432.12 1679.74,439.81 C 1665.96,428.45 1650.81,417.35 1632.83,414.17 C 1636.33,423.17 1640.64,432.24 1640.55,442.13 C 1622.07,435.9 1602.58,431.65 1582.98,432.97 C 1573.45,433.58 1564,435.58 1555.12,439.1 C 1546.62,442.28 1537.81,446.01 1531.92,453.24 C 1570.1,456.79 1608.74,466.45 1640.86,488.14 C 1686.66,519.99 1719.61,568.8 1734.78,622.25 C 1740.56,643.96 1741.38,666.94 1737.44,689.05 C 1735.26,699.28 1733.65,709.97 1728.12,719.06 C 1727.32,692.9 1724.67,666 1713.29,642.08 C 1712.09,641.94 1711.66,643.3 1711.02,644.02 C 1705.59,651.7 1702.8,660.83 1697.91,668.82 C 1694.37,651.37 1692.25,633.39 1685.19,616.89 C 1681.32,607.77 1675.61,599.37 1668.07,592.89 C 1664.73,602.34 1661.82,611.96 1657.76,621.13 C 1651.45,610.59 1648.1,598.64 1642.32,587.84 C 1633.01,569.21 1619.32,552.69 1602.18,540.76 C 1599.86,548.04 1599.06,555.68 1598.54,563.26 C 1585.16,549.06 1573.11,533.43 1557.68,521.31 C 1543.05,510.2 1526,500.99 1507.3,499.98 C 1522.76,513.81 1539.54,526.16 1554.06,541.02 C 1575.69,563.15 1591.86,591.83 1595,622.96 C 1595.7,632.94 1596.06,643.39 1592.56,652.93 C 1587.15,667.04 1573.16,677.43 1558.02,678.2 C 1562.74,667.62 1567.82,656.86 1568.69,645.14 C 1561.63,645.2 1554.57,645.29 1547.51,645.48 C 1552.14,634.64 1555.78,622.85 1554.14,610.94 C 1547.27,612.87 1540.85,616.04 1534.5,619.23 C 1534.57,600.08 1535.18,580.45 1529.32,561.97 C 1522.53,566.42 1521.81,575.08 1518.51,581.83 C 1517.42,581.6 1515.63,582.39 1515.25,580.91 C 1506.23,563.1 1498.48,543.43 1482.48,530.56 C 1478.51,527.7 1473.31,528.61 1468.73,528.38 C 1466.83,530.76 1464.96,533.15 1463.1,535.56 C 1466.03,537.18 1468.97,538.78 1471.93,540.39 C 1462.36,549 1450.47,555.12 1442.77,565.71 C 1446.63,567.89 1450.56,569.93 1454.53,571.93 C 1443.09,581.58 1428.08,588.39 1421.59,602.71 C 1426.21,603.64 1430.84,604.51 1435.47,605.44 C 1435.56,606.45 1435.66,607.46 1435.78,608.49 C 1419.9,617.3 1404.07,628.87 1396.84,646.16 C 1402.1,647.45 1407.36,648.8 1412.56,650.35 C 1398.22,659.42 1381.68,667.76 1373.9,683.74 C 1380.74,685.78 1387.72,687.32 1394.68,688.97 C 1381.11,700.44 1365.89,711 1357.06,726.86 C 1362.85,728.89 1368.91,729.93 1374.98,730.72 C 1364.88,742.75 1350.98,751.16 1342.1,764.29 C 1350.13,766.68 1358.52,767.44 1366.86,767.96 C 1355.41,779.79 1342.32,790.14 1332.43,803.41 C 1328.17,809.12 1324.72,815.44 1322.4,822.19 C 1328.83,822.52 1335.27,822.81 1341.71,823.15 C 1329.04,834.55 1316.83,847.07 1309.34,862.59 C 1316.08,864.46 1322.94,865.84 1329.78,867.31 C 1318.06,882.3 1301.63,894.53 1295.87,913.4 C 1338.26,918.28 1380.14,927.64 1420.52,941.46 C 1422.04,965.6 1420.79,989.82 1422.37,1013.96 C 1423.96,1043.3 1423.12,1072.72 1425.06,1102.03 C 1426.21,1128.66 1425.37,1155.33 1426.91,1181.95 C 1427.8,1193.26 1427.67,1204.63 1427.99,1215.97 C 1428.91,1264.66 1429.99,1313.34 1431.54,1362.01 C 1431.99,1369.1 1426.31,1374.16 1422.26,1379.22 C 1407.9,1395.79 1395.55,1414.13 1379.69,1429.37 C 1345.76,1409.34 1311.09,1389.95 1273.64,1377.28 C 1264.33,1374.36 1254.84,1371.46 1245.02,1371.12 C 1236.68,1370.81 1228.12,1373.28 1221.66,1378.65 C 1215.06,1384.41 1212.02,1393.35 1212.11,1401.96 C 1219.06,1400.53 1225.98,1398.97 1232.91,1397.48 C 1228.39,1409.47 1220.51,1419.99 1217.07,1432.43 C 1225.28,1431.24 1233.48,1429.99 1241.69,1428.8 C 1233.28,1448.76 1218.41,1467.06 1218.5,1489.68 C 1226.22,1487.82 1233.91,1485.83 1241.59,1483.81 C 1234.64,1503.72 1224.09,1523.14 1224.13,1544.75 C 1232.43,1541.37 1240.75,1538.01 1248.77,1534 C 1245.37,1550.47 1237.71,1565.9 1236.12,1582.78 C 1254.98,1579.49 1272.45,1571.33 1289.98,1564 C 1334.8,1544.7 1375.65,1517.14 1412.93,1485.86 C 1432.33,1467.98 1452.82,1451.12 1469.9,1430.9 C 1508.17,1389.3 1540.72,1342.66 1568.4,1293.43 C 1578.26,1275.19 1586.42,1256.07 1593.6,1236.64 C 1609.52,1194.1 1621.56,1150.02 1627.88,1105.01 C 1634.93,1056.32 1635.65,1006.68 1629.58,957.84 C 1620.07,875.41 1590.71,796.31 1551.12,723.76 C 1542.17,707.33 1532.76,691.14 1522.7,675.37 C 1510.14,655.82 1496.65,636.9 1483.43,617.8 C 1498.03,628.59 1510.78,641.64 1523.14,654.89 C 1533.42,666.27 1544.53,676.86 1554.6,688.44 C 1581.08,718.21 1604.28,750.74 1625.52,784.4 C 1646.71,817.81 1664.02,853.56 1678.76,890.23 C 1712.28,973.89 1728.64,1063.99 1729.69,1153.99 C 1730.43,1203.53 1726.85,1253.08 1720.16,1302.15 C 1717.08,1319.48 1711.88,1336.34 1707.65,1353.4 C 1689.58,1421.78 1662.13,1487.8 1625.2,1548.17 C 1606.97,1577.62 1586.98,1606.12 1563.84,1631.95 C 1558.19,1638.27 1552.67,1644.71 1547.1,1651.11 C 1478.13,1723.26 1392,1778.84 1297.89,1812.09 C 1280.3,1819.64 1261.98,1825.24 1243.56,1830.34 C 1216.26,1839.54 1187.89,1844.86 1159.86,1851.31 C 1146.77,1853.53 1133.61,1855.31 1120.5,1857.37 C 1112.98,1858.34 1105.54,1860.08 1097.95,1860.21 C 1080.32,1860.76 1062.69,1860.54 1045.06,1860.6 C 1021.31,1861.27 997.7,1858.02 974.06,1856.23 C 965.74,1855.36 957.29,1855.68 949.07,1853.98 C 934.4,1851.46 919.72,1848.98 905.05,1846.43 C 897.05,1844.96 888.91,1844.15 881.07,1841.9 C 857.31,1835.77 833.03,1831.41 809.9,1823.03 C 804.55,1820.94 799.09,1819.17 793.62,1817.46 C 769.87,1809.58 747.1,1799.12 724.42,1788.63 C 707.18,1781.12 690.9,1771.68 674.68,1762.25 C 640.41,1741.82 607.89,1718.42 577.95,1692.06 C 565.52,1681.87 554.09,1670.55 542.96,1658.97 C 531.93,1647.36 519.91,1636.67 509.76,1624.24 C 501.87,1614.76 494.48,1604.87 486.52,1595.45 C 475.07,1582.89 466.08,1568.43 456.53,1554.44 C 439.5,1531.74 426.09,1506.69 411.73,1482.29 C 408.36,1476.77 405.8,1470.82 402.89,1465.07 C 382.39,1423.11 363.82,1380.16 348.86,1335.9 C 343.38,1318.24 336.64,1300.94 332.58,1282.87 C 330.36,1273.74 330.16,1264.31 328.37,1255.11 C 319.63,1199.9 315.86,1143.84 318.15,1087.96 C 320.94,1018.6 333.18,949.37 357.09,884.09 C 369.57,849.68 385.83,816.76 403.95,784.99 C 423.01,752.29 445.21,721.5 469.27,692.31 C 487.69,669.86 507.32,648.34 528.93,628.91 C 545.94,612.01 563.83,595.99 582.75,581.24 C 528.2,649.84 480.16,725.14 452.62,808.86 C 447.96,824.37 444.24,840.15 439.38,855.61 C 423.37,918.94 420.11,985.15 426.96,1050 C 432.25,1097.75 441.95,1145.11 457.39,1190.65 C 492.41,1295.03 554.96,1390.59 639.03,1462 C 683.31,1498.66 731.93,1530.11 783.69,1555.16 C 797.14,1561.85 810.59,1568.76 825,1573.2 C 822.73,1558.22 817.78,1543.84 814.35,1529.12 C 821.45,1531.75 828.55,1534.39 835.86,1536.39 C 830.91,1516.18 822.06,1497.27 814.74,1477.88 C 823.75,1478.93 832.68,1480.59 841.66,1481.93 C 834.52,1460.83 824.33,1440.92 816.98,1419.9 C 825.03,1425.18 833.2,1430.33 841.9,1434.49 C 836.65,1416.06 822.74,1401.83 816.19,1383.98 C 824.96,1385.16 833.72,1386.44 842.49,1387.62 C 837.95,1373.14 830.18,1360.03 823.85,1346.32 C 766.1,1348.47 710.08,1368.24 660.58,1397.38 C 654.38,1393.41 649.18,1388.1 644.73,1382.29 C 632.75,1366.73 618.78,1352.86 606.59,1337.48 C 602.61,1332.89 604.53,1326.39 604.58,1320.93 C 614.1,1214.3 621.83,1107.52 630.27,1000.81 C 632.17,977.19 633.82,953.54 636.21,929.96 C 636.77,922.61 637.43,915.25 637.18,907.87 C 659.18,898.36 682.92,894.08 706.29,889.33 C 727.01,885.38 748.19,885.59 769.18,884.48 C 764.16,871.53 756.14,860.01 750.85,847.18 C 754.34,845.67 757.83,844.18 761.34,842.72 C 756.77,826.11 743.98,813.76 736.26,798.73 C 740.23,797.02 744.2,795.33 748.18,793.63 C 738.28,774.85 723.56,759.32 711.59,741.93 C 718.4,742.45 725.22,742.94 732.05,743.23 C 723.25,726.92 707.84,715.58 698.33,699.77 C 701.67,698.19 705.03,696.64 708.38,695.07 C 700.61,679.73 690.42,665.79 682.11,650.75 C 684.62,648.8 687.13,646.86 689.65,644.92 C 681.92,632.03 672.37,620.37 664.08,607.86 C 666.28,606.68 668.48,605.49 670.69,604.31 C 667.14,595.54 660.3,588.82 654.62,581.46 C 652.48,578.55 649.96,575.58 649.64,571.84 C 649.07,568.05 649.73,563.87 647.61,560.49 C 642.64,551.96 636.01,544.58 630.6,536.35 C 626.43,530.64 627.78,522.92 624.14,516.99 C 616.07,503.24 607.94,489.08 595.69,478.56 C 583.17,482.92 569,487.83 562.06,500.04 C 557.81,508.83 552.46,517 547.16,525.18 C 543.64,517.78 541.1,509.95 537.18,502.74 C 535.95,502.94 534.72,503.14 533.51,503.35 C 526.27,524.54 525.93,547.5 529.31,569.46 C 521.89,563.93 514.33,558.31 505.52,555.21 C 506.55,567.76 509.83,579.97 511.95,592.35 C 507.24,591.05 502.53,589.73 497.82,588.44 C 498.87,602.06 501.56,615.57 501.17,629.27 C 485.9,624.77 472.52,614.02 464.88,600.05 C 458.09,584.14 459.06,566.01 463.44,549.59 C 466.64,537.1 472.2,525.27 479.83,514.89 C 495.37,493.34 517.2,477.42 539.64,463.71 C 543.15,461.79 545.83,458.75 548.06,455.49 C 526.92,459.32 506.54,467.6 488.89,479.89 C 481.27,485.5 475.13,493.04 466.67,497.51 C 464.17,492.25 461.75,486.95 459.25,481.69 C 445.82,488.38 435.14,499.2 424.84,509.86 C 414.5,520.92 407.17,534.34 397.21,545.72 C 393.18,538.38 389.28,530.95 384.47,524.09 C 373.65,532.96 368.96,546.54 362.26,558.35 C 355.85,569.4 351.65,581.52 346.78,593.28 C 344.2,586.5 341.32,579.72 336.91,573.9 C 322.88,594.68 318.59,619.83 310.95,643.25 C 307.7,601.64 312.9,558.66 330.52,520.53 C 337.6,505.66 346.01,491.31 356.52,478.58 C 370.12,462.04 386.71,447.95 405.24,437.2 C 420.09,428.41 436.41,422.47 452.9,417.58 C 479.94,409.83 508.01,406.9 535.89,403.93 C 534.14,401.46 532.46,398.8 529.83,397.18 C 515.45,388.06 499.7,380.91 483.09,377.04 C 464.34,372.69 444.94,373.55 425.88,374.56 C 429.48,365.71 433.37,356.96 436.4,347.88 C 415.49,348.14 396.01,357.05 378.02,366.93 C 377.5,360.96 376.94,354.99 376.28,349.03 C 369.91,349.97 363.98,352.96 359.24,357.28 C 351.94,363.86 346.63,372.24 340.33,379.72 C 336.52,372.74 332.79,365.54 327.06,359.9 C 306.95,378.41 299.33,405.91 294.55,431.9 C 292.58,427.46 290.93,422.82 288.13,418.82 C 287.12,416.97 284.46,416.66 282.86,417.89 C 280.16,419.87 278.44,422.84 276.67,425.61 C 269.41,437.46 265.82,451.02 262.15,464.29 C 256.65,440.73 254.49,415.86 259.86,392.07 C 262.94,378.71 268.46,365.74 277.05,354.98 C 293.72,333.33 317,317.45 342.15,307.2 C 371.22,294.76 403.72,291.82 434.92,295.62 C 445.85,296.84 456.58,299.29 467.3,301.65 C 476.19,303.77 484.95,306.55 494.04,307.72 C 489.69,301.15 483.18,296.54 476.78,292.16 C 457.64,279.34 435.97,270.62 413.63,265.25 C 412.61,259.99 411.48,254.75 410.15,249.56 C 393.35,249.47 377.71,256.44 362.78,263.39 C 362.62,256.27 362.5,249.15 362.37,242.03 C 356.71,241.63 351.06,243.22 346.32,246.29 C 337.9,251.66 331.5,259.58 323.2,265.11 C 321.58,252.26 322.11,238.35 328.96,226.97 C 336.27,215.4 348.27,207.25 361.34,203.54 C 374.78,199.59 389.03,199.08 402.89,200.48 C 428.33,203.66 451.15,216.34 472.85,229.22 C 484.74,236.06 495.23,245.2 507.69,251.07 C 512.8,231.69 516.09,211.27 526.92,194.02 C 534.11,180.99 545.96,171.54 557.55,162.61 C 571.7,152.43 588.03,145.31 605.03,141.54 M 607.36,472.2 C 614.55,486.06 624.39,498.28 632.27,511.71 C 637.49,520.53 642.78,529.3 647.92,538.17 C 684.55,600.41 715.85,665.87 740.27,733.87 C 750.62,762.21 759.51,791.06 768.43,819.88 C 774.57,840.76 779.54,861.97 785.84,882.8 C 795.14,885.41 804.73,882.99 814.03,881.63 C 813.41,867.19 808.68,853.4 805.46,839.42 C 782.3,751.5 749.92,665.91 707.71,585.33 C 702.09,572.91 695.82,560.79 688.9,549.04 C 680.2,534.15 671.5,519.26 662.3,504.68 C 651.21,486.77 640.08,468.85 627.65,451.83 C 619.57,457.02 610.97,462.86 607.36,472.2 M 1439.35,497.25 C 1436.18,501.24 1433.53,505.62 1430.85,509.94 C 1420.7,526.84 1410.56,543.74 1400.93,560.94 C 1379.48,598.63 1358.1,636.43 1339.63,675.69 C 1304.43,749.72 1272.86,825.9 1252.62,905.49 C 1261.49,905.87 1270.37,905.7 1279.25,905.45 C 1286.6,884.6 1290.38,862.68 1297.88,841.88 C 1334.54,729.38 1391.75,624.62 1458.09,527.04 C 1462.31,520.49 1467.7,514.49 1469.78,506.8 C 1461.78,503.67 1453.92,500.19 1445.89,497.16 C 1443.84,496.56 1441.02,495.28 1439.35,497.25 M 649.42,911.28 C 646.53,938.43 645.34,965.72 644,992.98 C 642.97,1015.35 641.26,1037.69 640,1060.05 C 635.48,1138.33 632.3,1216.68 627.58,1294.95 C 626.68,1306.86 626.25,1318.82 626.89,1330.77 C 641.96,1328.05 656.05,1321.85 670.75,1317.76 C 746.18,1295.38 828.36,1292.81 903.91,1316.01 C 941.82,1327.7 977.63,1345.59 1010.78,1367.26 C 1017.07,1371.23 1023.02,1375.89 1030.03,1378.55 C 1042.55,1372.84 1053.95,1364.97 1066.59,1359.48 C 1126.49,1330.52 1194.06,1316.72 1260.5,1322.76 C 1303.55,1326.34 1345.93,1336.6 1386.32,1351.83 C 1397.04,1355.81 1407.25,1361.14 1418.28,1364.28 C 1418.28,1333.51 1417.92,1302.73 1416.65,1271.99 C 1415.82,1242.32 1415.87,1212.64 1415.5,1182.97 C 1415.51,1172.64 1414.61,1162.35 1414.35,1152.03 C 1413.22,1119.37 1413.3,1086.68 1412.82,1054.01 C 1412.72,1032.31 1411.29,1010.64 1411.42,988.95 C 1411.23,976.87 1411.47,964.73 1410.09,952.72 C 1408.75,948.98 1404.34,947.96 1400.99,946.81 C 1352.44,931.62 1301.88,922.31 1250.95,921.34 C 1226.89,920.76 1202.87,922.63 1178.96,925.1 C 1136.4,929.54 1094.1,937.42 1053.26,950.33 C 1046.24,952.95 1039.3,949.79 1032.91,947.07 C 1001.32,934.7 968.92,924.46 936.04,916.15 C 893.92,904.86 850.44,899.46 806.98,896.85 C 754.09,894.6 701.23,901.07 649.42,911.28 M 853.1,1355.98 C 853.45,1360.93 853.91,1365.88 854.59,1370.81 C 857.59,1392.52 859.99,1414.33 861.21,1436.22 C 863.73,1482.94 860.43,1529.81 853.87,1576.1 C 853.73,1579.62 851.94,1585.16 856.11,1587.01 C 866.34,1589.96 876.66,1592.68 887.13,1594.69 C 891.15,1590.45 892.32,1584.6 893.45,1579.09 C 900.81,1550.02 907.16,1520.64 911.08,1490.89 C 914.1,1470.14 913.94,1449.1 913.7,1428.19 C 913.14,1405.39 910.41,1382.46 903.38,1360.69 C 886.74,1358.01 869.87,1357.46 853.1,1355.98 M 1159.49,1373.2 C 1141.27,1426.9 1137.77,1484.9 1145.43,1540.88 C 1148.66,1563.04 1150.56,1585.64 1157.97,1606.92 C 1174.05,1601.84 1189.86,1595.95 1205.73,1590.26 C 1205.14,1560.75 1200.67,1531.48 1199.72,1501.99 C 1199.14,1470.59 1198.21,1438.93 1203.36,1407.82 C 1205.51,1394.31 1208.89,1381.02 1210.78,1367.46 C 1193.6,1368.49 1176.49,1370.5 1159.49,1373.2 M 1024.33,1426.12 C 1011.95,1415.36 1001.39,1402.48 987.78,1393.17 C 975.03,1384.71 962.01,1375.89 946.91,1372.3 C 942.09,1384.37 937.08,1396.46 934.19,1409.17 C 937.8,1409.72 941.42,1410.28 945.05,1410.86 C 942.88,1425.44 938.24,1439.6 937.16,1454.36 C 940.46,1455.03 943.76,1455.74 947.07,1456.43 C 943.04,1477.9 936.96,1498.96 933.64,1520.57 C 937.5,1520.65 941.36,1520.71 945.23,1520.81 C 942.98,1533.09 936.86,1544.11 932.85,1555.82 C 937.66,1556.8 942.48,1557.76 947.3,1558.77 C 941.44,1573.3 933.37,1586.81 927.23,1601.22 C 932.52,1603.87 938.27,1605.52 944.14,1606.28 C 969.65,1609.86 995.2,1613.74 1021,1614.37 C 1056.52,1614.81 1092.54,1616.44 1127.49,1608.74 C 1123.2,1594.75 1115.64,1582.01 1111.66,1567.91 C 1120.16,1566.91 1128.72,1566.55 1137.25,1565.95 C 1129.83,1548.05 1116.94,1533.03 1109.89,1514.94 C 1115.09,1514.38 1120.3,1513.95 1125.52,1513.56 C 1122.79,1495.29 1112.34,1479.19 1109.95,1460.84 C 1116.22,1460.22 1122.51,1459.63 1128.79,1459.02 C 1124.33,1443.91 1116.98,1429.87 1111.96,1414.95 C 1116.4,1412.77 1120.87,1410.66 1125.3,1408.45 C 1124.45,1396.14 1121.45,1384.13 1119.07,1372.07 C 1084.84,1385.01 1054.87,1406.43 1024.33,1426.12 z"
       id="path7"
       style="opacity:1;fill:#25282b" />
    <path
       d="M 641.43,502.65 C 644.33,503.36 647.34,504.39 649.33,506.75 C 652.72,510.39 653.54,515.57 653.31,520.37 C 650.57,520.01 647.62,519.5 645.66,517.36 C 641.94,513.48 641.41,507.76 641.43,502.65 z"
       id="path9"
       style="opacity:1;fill:#25282b" />
    <path
       d="M 663.65,542.91 C 667.56,543.92 672.42,544.61 674.49,548.58 C 675.62,552.42 675.21,556.51 675.27,560.47 C 668.19,557.63 664.01,550.33 663.65,542.91 z"
       id="path11"
       style="opacity:1;fill:#25282b" />
    <path
       d="M 1412.63,562.5 C 1412.13,555.78 1415.11,548.06 1422.25,546.31 C 1424.11,548 1426.08,550.18 1425.62,552.94 C 1424.76,558.93 1418.54,563.23 1412.63,562.5 z"
       id="path13"
       style="opacity:1;fill:#25282b" />
    <path
       d="M 1396.17,583.18 C 1398.29,581.31 1401.15,580.99 1403.86,580.8 C 1404.41,585.27 1403.84,590.19 1400.72,593.68 C 1398.48,596.39 1395.04,597.54 1391.72,598.18 C 1390.52,592.87 1391.74,586.68 1396.17,583.18 z"
       id="path15"
       style="opacity:1;fill:#25282b" />
    <path
       d="M 688.09,582.67 C 694.96,585.9 699.2,593.32 698.48,600.9 C 695.55,600.55 692.42,599.94 690.36,597.65 C 686.48,593.73 686.31,587.61 688.09,582.67 z"
       id="path17"
       style="opacity:1;fill:#25282b" />
    <path
       d="M 1369.94,637.28 C 1369.34,629.42 1375.16,622.65 1382.4,620.39 C 1384.3,626.31 1382.21,632.63 1378.32,637.25 C 1375.51,637.2 1372.72,637.24 1369.94,637.28 z"
       id="path19"
       style="opacity:1;fill:#25282b" />
    <path
       d="M 711.25,633.11 C 716.12,632.68 721.04,635.47 722.83,640.1 C 724.46,643.58 723.57,647.55 721.81,650.81 C 714.95,647.85 710.61,640.55 711.25,633.11 z"
       id="path21"
       style="opacity:1;fill:#25282b" />
    <path
       d="M 1352.53,667.58 C 1354.66,665.9 1357.43,665.69 1360.04,665.47 C 1360.24,669.68 1359.62,674.31 1356.46,677.41 C 1354.07,680.07 1350.41,680.83 1346.99,680.93 C 1346.96,676.02 1348.37,670.59 1352.53,667.58 z"
       id="path23"
       style="opacity:1;fill:#25282b" />
    <path
       d="M 43.49,893.37 C 60.77,817.93 86.65,744.07 124.66,676.48 C 143.17,682.19 160.32,691.32 178,699.05 C 193.26,706.53 209.1,712.74 224.43,720.06 C 221.78,731.54 216.33,742.06 211.43,752.69 C 192.95,745.09 174.82,736.68 156.67,728.34 C 151.61,726.06 146.52,723.58 140.96,722.84 C 135.89,728.33 133.48,735.54 130.07,742.06 C 109.78,782.78 93.47,825.49 81.66,869.44 C 95.39,875.41 109.19,881.28 123.4,886.06 C 129.26,871.16 132.8,855.5 137.54,840.24 C 193.17,854.6 247.75,872.77 303.47,886.83 C 300.9,898.74 296.41,910.11 292.15,921.49 C 273.22,918.56 255.88,910.03 237.77,904.27 C 233.55,902.8 229.05,902.89 224.65,902.79 C 220.35,921 216.84,939.53 216.58,958.3 C 236.27,962.38 256.07,966.01 275.48,971.31 C 273.15,1022.91 266.14,1074.13 261.45,1125.53 C 237.94,1125.31 214.45,1124.1 190.95,1123.7 C 158.66,1120.67 126.07,1121.77 93.89,1117.4 C 96.92,1059.25 100.69,1000.61 115.66,944.09 C 135.8,944.83 155.86,946.99 175.98,948.04 C 177.63,946.66 179.27,945.12 179.9,942.99 C 181.86,937.29 182.84,931.32 184.38,925.51 C 187.27,914.49 190.68,903.54 191.94,892.18 C 181.83,890.09 171.69,887.65 161.32,887.39 C 158.66,900.5 156.18,913.63 153.9,926.81 C 146.88,926.52 140.03,924.79 133.41,922.52 C 103.52,912.54 72.85,904.91 43.49,893.37 M 135.38,1048.06 C 134.67,1060.49 133.63,1073.02 135.08,1085.44 C 143.51,1086.19 152.04,1086.48 160.44,1085.16 C 162.47,1070.18 162.3,1055 164.15,1040 C 165.6,1021.62 169.97,1003.66 173.49,985.61 C 163.42,983.16 153.2,981.15 142.82,980.7 C 137.88,1002.82 136.92,1025.53 135.38,1048.06 M 207.38,985.2 C 202.59,1019.5 199.32,1054.12 200.12,1088.79 C 208.18,1089.23 216.25,1089.49 224.32,1089.61 C 226.99,1079.32 227.22,1068.64 227.85,1058.1 C 228.15,1051.77 229.21,1045.51 229.69,1039.2 C 231.45,1022.24 235.46,1005.64 238.36,988.87 C 228.17,986.8 217.85,984.53 207.38,985.2 z"
       id="path25"
       style="opacity:1;fill:#25282b" />
    <path
       d="M 730.31,676.38 C 733.37,676.82 736.43,677.29 739.49,677.74 C 741.31,682.71 742.65,687.84 743.54,693.06 C 740.66,692.83 737.8,692.59 734.94,692.31 C 732.36,687.37 730.11,682.07 730.31,676.38 z"
       id="path27"
       style="opacity:1;fill:#25282b" />
    <path
       d="M 1325.9,718.88 C 1327.83,714.66 1332.12,712.29 1336.38,710.99 C 1336.33,714.88 1336.79,718.91 1335.65,722.69 C 1333.07,725.67 1329.33,727.26 1325.98,729.18 C 1324.74,725.89 1324.19,722.11 1325.9,718.88 z"
       id="path29"
       style="opacity:1;fill:#25282b" />
    <path
       d="M 751.63,732.21 C 754.56,732.19 757.49,732.19 760.43,732.23 C 763.23,737.45 765.13,743.33 764.38,749.33 C 756.29,747.93 752.51,739.55 751.63,732.21 z"
       id="path31"
       style="opacity:1;fill:#25282b" />
    <path
       d="M 1308.29,762.25 C 1310.44,760.01 1313.55,759.29 1316.51,758.86 C 1316.77,764.05 1315.55,769.97 1311.08,773.17 C 1308.97,774.83 1306.2,774.95 1303.66,775.13 C 1303.85,770.52 1304.82,765.56 1308.29,762.25 z"
       id="path33"
       style="opacity:1;fill:#25282b" />
    <path
       d="M 1748.81,807.88 C 1781.32,798.61 1813.52,788.12 1846.5,780.53 C 1866.58,815.54 1882.16,853.01 1894.51,891.4 C 1900.08,908 1904.53,924.95 1908.25,942.06 C 1914,967.84 1918.52,994.11 1918.22,1020.61 C 1879.21,1027.91 1840.27,1035.54 1801.46,1043.81 C 1792.4,1045.73 1783.25,1047.22 1774.05,1048.18 C 1771.25,1046.36 1770.15,1043.2 1769.95,1040.02 C 1768.6,1031.75 1767.96,1023.37 1767.87,1015 C 1807.1,1005.6 1846.97,998.89 1885.83,987.92 C 1872.06,928.87 1853.39,870.94 1829.36,815.25 C 1816.65,818.77 1804.7,824.44 1792.57,829.53 C 1794.51,840.99 1799.42,851.6 1803.34,862.47 C 1813.3,890.47 1826,917.52 1833.69,946.3 C 1823.8,949.47 1813.66,951.73 1803.52,953.9 C 1798.03,946.73 1795.69,937.95 1792.49,929.67 C 1783.93,906.5 1775.25,883.37 1766.89,860.12 C 1763.58,851.1 1760.56,841.98 1756.78,833.15 C 1753.33,825 1750.05,816.69 1748.81,807.88 z"
       id="path35"
       style="opacity:1;fill:#25282b" />
    <path
       d="M 769.35,785.01 C 772.2,784.99 775.05,784.99 777.91,784.99 C 780.59,790.26 782.68,796.04 782.13,802.06 C 779.53,801.56 776.8,800.94 774.86,799.02 C 771.01,795.44 769.87,790.02 769.35,785.01 z"
       id="path37"
       style="opacity:1;fill:#25282b" />
    <path
       d="M 1291.08,811.06 C 1293.55,808.16 1297.34,806.99 1301.03,806.78 C 1300.94,812.07 1299.92,818.13 1295.45,821.55 C 1293.34,823.3 1290.48,823.05 1287.94,822.92 C 1287.25,818.74 1288.06,814.19 1291.08,811.06 z"
       id="path39"
       style="opacity:1;fill:#25282b" />
    <path
       d="M 786.78,844.17 C 789.48,844.79 792.34,845.55 794.28,847.68 C 797.98,851.44 798.68,856.99 798.71,862.03 C 794.58,860.97 789.51,859.92 787.54,855.64 C 786.55,851.9 786.87,847.98 786.78,844.17 z"
       id="path41"
       style="opacity:1;fill:#25282b" />
    <path
       d="M 1913.18,860.93 C 1923.99,856.57 1935.85,858.11 1947.18,858.54 C 1952.9,875.73 1958.25,893.04 1963.64,910.33 C 1952.86,913.59 1941.5,913.82 1930.33,913.87 C 1924.15,896.37 1919.52,878.37 1913.18,860.93 z"
       id="path43"
       style="opacity:1;fill:#25282b" />
    <path
       d="M 1271.72,871.72 C 1274.57,870.26 1277.87,870.34 1280.97,869.88 C 1281.11,875.3 1279.47,881.48 1274.57,884.48 C 1272.22,886.06 1269.32,885.8 1266.69,885.38 C 1268.11,880.77 1268.83,875.7 1271.72,871.72 z"
       id="path45"
       style="opacity:1;fill:#25282b" />
    <path
       d="M 1181.75,959.13 C 1199.58,951.42 1215.54,939.57 1234.38,934.2 C 1234.63,937.76 1234.77,941.32 1234.93,944.89 C 1231.46,948.89 1226.27,950.44 1221.68,952.71 C 1211.24,957.16 1201.2,962.52 1190.69,966.82 C 1188.59,967.39 1186.27,969.3 1184.13,967.98 C 1181.17,966.11 1182.07,962.07 1181.75,959.13 z"
       id="path47"
       style="opacity:1;fill:#25282b" />
    <path
       d="M 754,958.96 C 767.26,953.27 779.79,945.74 793.79,941.93 C 792.38,946.96 792.55,953.55 787.6,956.64 C 775.87,962.46 763.63,967.16 751.74,972.61 C 745.49,975.44 739.55,978.93 733.14,981.4 C 724.81,984.67 716.2,987.17 707.79,990.2 C 707.44,997.32 708.02,1004.6 706.45,1011.59 C 703.36,1016.05 697.84,1017.59 693.19,1019.86 C 694.84,1014.53 697.05,1009.37 698.28,1003.93 C 699.96,997.84 695.63,992.42 693.39,987.09 C 713.36,977.21 733.53,967.74 754,958.96 z"
       id="path49"
       style="opacity:1;fill:#25282b" />
    <path
       d="M 898.92,975.91 C 919.36,967.13 939.37,957.32 960.26,949.63 C 960.17,952.94 960.05,956.25 959.85,959.57 C 941.05,968.8 922.38,978.32 903.73,987.85 C 896.48,991.52 889.22,995.7 880.99,996.62 C 881.67,992.33 881.46,987.59 883.66,983.76 C 888.21,980.23 893.76,978.34 898.92,975.91 z"
       id="path51"
       style="opacity:1;fill:#25282b" />
    <path
       d="M 838.58,953.04 C 839.87,952.72 840.43,954.13 841.2,954.9 C 847.42,962.84 850.21,972.78 852.31,982.49 C 855.57,996.53 857.32,1010.85 860,1025 C 861.72,1033.87 863.55,1042.96 868.22,1050.83 C 872.18,1057.65 878.14,1063.88 885.94,1066.07 C 895.42,1068.45 905.53,1066.42 914.18,1062.17 C 935.85,1050.75 950.21,1029.63 971.06,1017.02 C 974.85,1014.86 979.79,1014.18 983.79,1016.21 C 986.72,1017.64 988.03,1020.82 989.42,1023.58 C 995.64,1036.39 998.65,1050.96 996.72,1065.15 C 995.67,1073.02 988.06,1080.18 979.83,1078.68 C 968.44,1077.59 960.07,1068.92 949.94,1064.58 C 931.62,1073.11 913.06,1084.31 892.11,1083.3 C 875.32,1083.04 858.32,1072.75 852.53,1056.61 C 846.49,1036.81 843.18,1016.31 840.16,995.87 C 838.67,984.96 836.87,974.04 836.95,963 C 837.05,959.62 837.48,956.24 838.58,953.04 M 971.26,1041.37 C 966.94,1043.34 965.32,1048.92 966.75,1053.24 C 968.27,1057.93 974.11,1060.96 978.69,1058.61 C 985.27,1056.17 985.83,1045.46 979.67,1042.24 C 977.15,1040.82 974,1040.4 971.26,1041.37 z"
       id="path53"
       style="opacity:1;fill:#25282b" />
    <path
       d="M 1288.37,979.46 C 1303.22,962.81 1326.16,954.95 1348.13,955.66 C 1347.94,959.88 1347.75,964.1 1347.55,968.32 C 1336.14,970.45 1324.3,971.54 1313.65,976.5 C 1306.7,979.45 1300.4,983.74 1293.35,986.45 C 1289.63,988.27 1285.61,982.42 1288.37,979.46 z"
       id="path55"
       style="opacity:1;fill:#25282b" />
    <path
       d="M 1219.53,984.55 C 1210.88,976.68 1215.19,961.52 1225.06,956.76 C 1225.97,961.07 1226.82,965.39 1227.72,969.71 C 1235.74,967.28 1244.03,964.12 1249.49,957.43 C 1253.32,964.03 1252.32,974.24 1245.23,978.12 C 1236.9,981.14 1228.15,982.66 1219.53,984.55 z"
       id="path57"
       style="opacity:1;fill:#25282b" />
    <path
       d="M 805.62,989.04 C 804.46,980.27 805.16,971.16 808.53,962.94 C 815.01,968.83 819.2,976.77 821.98,984.97 C 825.17,994.43 827.08,1004.25 828.97,1014.04 C 831.12,1025.58 832.42,1037.54 830.09,1049.17 C 828.26,1058.12 821.99,1065.83 814.02,1070.13 C 808.22,1073.33 801.54,1074.29 795.05,1074.88 C 778.65,1076.12 762.47,1072.53 746.17,1071.55 C 742.11,1076.54 737.77,1082.53 730.95,1083.58 C 722.44,1083.85 715.34,1077.71 706.9,1077.6 C 699.5,1081.61 694.24,1089.31 685.86,1091.84 C 678.67,1094.59 670.84,1094.33 663.28,1094.6 C 675.23,1084.92 687.53,1075.33 696.95,1063.04 C 702.42,1055.89 706.78,1047.77 708.94,1038.99 C 710,1034.74 710.03,1030.17 712.22,1026.28 C 715.32,1020.08 721.9,1015.27 729.04,1015.94 C 732.9,1016.03 735.58,1019.24 737.88,1021.96 C 744.27,1030.21 747.46,1040.3 751.47,1049.8 C 769.84,1053.52 788.82,1051.82 807.12,1048.56 C 810.67,1047.94 814.19,1046.97 817.31,1045.12 C 816.96,1025.78 808.07,1008.03 805.62,989.04 M 720.88,1056.17 C 724.47,1057.81 728.55,1056.85 732.35,1056.78 C 732.75,1051.9 733.63,1046.86 731.89,1042.14 C 728,1040.41 723.71,1040.79 719.58,1040.86 C 719.53,1045.89 717.92,1051.69 720.88,1056.17 z"
       id="path59"
       style="opacity:1;fill:#25282b" />
    <path
       d="M 1113.98,983.85 C 1127.28,976.76 1140.55,969.61 1154.08,962.95 C 1155.52,966.8 1156.53,970.79 1157.21,974.85 C 1139.01,983.13 1121.16,992.19 1102.6,999.63 C 1103.68,996.15 1104.45,992.51 1106.37,989.37 C 1108.03,986.54 1111.24,985.36 1113.98,983.85 z"
       id="path61"
       style="opacity:1;fill:#25282b" />
    <path
       d="M 1231.51,995.74 C 1235.84,994.88 1240.18,994.05 1244.52,993.21 C 1247.86,1004.33 1247.73,1016.04 1248.79,1027.51 C 1249.88,1036.56 1249.5,1045.89 1252.5,1054.62 C 1255.5,1064.24 1263.88,1072.64 1274.17,1073.79 C 1282.41,1074.72 1290.59,1072.8 1298.7,1071.53 C 1296.12,1060.22 1292.18,1048.68 1294.18,1036.95 C 1296.13,1027.1 1300.96,1017.27 1309.43,1011.49 C 1315.11,1007.46 1322.47,1006.97 1329.13,1008.28 C 1341.48,1010.61 1352.01,1018.02 1362.04,1025.19 C 1356.44,1027.58 1351.14,1031.17 1344.93,1031.66 C 1336.59,1030.22 1329.63,1024.07 1320.99,1023.8 C 1316.18,1023.86 1310.38,1025.55 1308.67,1030.6 C 1306.53,1036.81 1307.37,1043.73 1309.08,1049.96 C 1310.47,1054.59 1313.61,1058.96 1318.37,1060.53 C 1325,1062.75 1332.39,1064.54 1339.26,1062.28 C 1347.35,1059.82 1354.45,1054.54 1362.94,1053.33 C 1365.84,1052.79 1369.12,1053.5 1371.09,1055.85 C 1375.45,1060.88 1374.83,1070.29 1368.59,1073.53 C 1361.52,1076.12 1353.5,1075.16 1346.7,1078.71 C 1332.49,1085.95 1317.84,1092.78 1302.12,1095.97 C 1288.86,1098.73 1274.73,1098.73 1261.86,1094.18 C 1250.56,1089.54 1243.12,1079.38 1234.15,1071.59 C 1226.34,1078.08 1218.79,1085.12 1209.67,1089.76 C 1200.58,1094.41 1189.99,1095.77 1179.98,1093.93 C 1173.16,1093.19 1166.44,1090.04 1159.52,1091.64 C 1153.73,1092.77 1148,1095.09 1142.01,1094.44 C 1137.26,1093.93 1132.66,1092.61 1128.02,1091.57 C 1121.16,1098.23 1115.23,1106.2 1106.69,1110.87 C 1101.35,1112.95 1095.47,1111.47 1089.93,1111.22 C 1089.75,1110.31 1089.39,1108.5 1089.21,1107.59 C 1101.01,1101.86 1113.4,1094.87 1119.82,1082.91 C 1125.01,1068.52 1123.96,1051.89 1133.03,1038.94 C 1135.47,1034.73 1141.37,1032.42 1145.68,1035.24 C 1158.94,1044.37 1163.61,1062.31 1178.55,1069.47 C 1193.72,1075.86 1211.07,1071.46 1224.97,1063.87 C 1229.41,1061.45 1233.63,1058.67 1237.77,1055.78 C 1236.62,1035.67 1231.49,1015.94 1231.51,995.74 M 1137.12,1055.96 C 1134.93,1061.21 1135.57,1067.04 1137.58,1072.25 C 1141.39,1071.85 1145.2,1071.47 1149.02,1071.1 C 1149.34,1067.09 1149.79,1062.77 1148.01,1059.04 C 1145.54,1055.64 1140.74,1056.56 1137.12,1055.96 z"
       id="path63"
       style="opacity:1;fill:#25282b" />
    <path
       d="M 1828.83,1076.54 C 1860.24,1076.59 1891.63,1075.3 1923.03,1075 C 1925.95,1075.18 1930.8,1074.82 1931.25,1078.79 C 1938.68,1120.09 1940.86,1162.14 1941.06,1204.04 C 1940.91,1221.38 1941.21,1238.76 1939.55,1256.05 C 1931.59,1356.27 1905.81,1454.93 1864.67,1546.63 C 1844.06,1591.84 1820.81,1635.83 1795.59,1678.63 C 1789.47,1688.64 1783.21,1698.62 1775.93,1707.84 C 1769.57,1694.33 1764.8,1680.17 1759.6,1666.2 C 1755.74,1654.79 1750.54,1643.9 1746.68,1632.51 C 1733.89,1597.31 1719.6,1562.66 1707.61,1527.18 C 1706.74,1524.52 1705.5,1521.86 1705.71,1519.02 C 1706.01,1515.01 1708.02,1511.44 1709.79,1507.93 C 1715.01,1497.93 1720.59,1488.1 1725.23,1477.8 C 1730.88,1478.66 1736.42,1480.17 1741.67,1482.46 C 1768.33,1493.45 1795.08,1504.23 1821.63,1515.49 C 1827.03,1517.86 1832.82,1519.17 1838.62,1520.18 C 1847.45,1501.69 1852.76,1481.83 1859.03,1462.4 C 1836.67,1453.2 1813.06,1447.67 1790.25,1439.78 C 1792.72,1418.68 1799.14,1398.35 1803.39,1377.59 C 1810.3,1348.36 1815.12,1318.64 1823.27,1289.7 C 1835.07,1292.09 1846.91,1294.62 1858.21,1298.87 C 1851.78,1328.89 1846.53,1359.14 1840.16,1389.18 C 1838.87,1395.73 1837.21,1402.3 1836.97,1409 C 1837.15,1411.44 1837.41,1415 1840.39,1415.61 C 1850.74,1419.23 1861.53,1421.39 1872.24,1423.74 C 1893.1,1364.57 1898.54,1301.65 1906.2,1239.8 C 1882.08,1233.34 1856.89,1232.07 1832.84,1225.27 C 1830.18,1188.57 1830.78,1151.74 1828.97,1115 C 1828.67,1102.19 1827.07,1089.32 1828.83,1076.54 M 1860.72,1107.08 C 1860.15,1137.1 1863.46,1167.03 1863.18,1197.05 C 1877.97,1199.65 1893.05,1200.04 1908.04,1199.78 C 1908.59,1179.19 1907.82,1158.59 1907.98,1138 C 1908.03,1128.53 1908.6,1118.91 1906.22,1109.65 C 1891.02,1109.42 1875.93,1107.05 1860.72,1107.08 M 1741.76,1529.78 C 1754.16,1562.41 1768.6,1594.22 1781.51,1626.65 C 1782.1,1628.72 1783.83,1630.12 1785.96,1630.49 C 1797.61,1608.77 1809.42,1587.15 1820.18,1564.97 C 1810.28,1557.98 1798.61,1554.31 1787.75,1549.18 C 1772.51,1542.5 1757.58,1535.03 1741.76,1529.78 z"
       id="path65"
       style="opacity:1;fill:#25282b" />
    <path
       d="M 957.46,1122.49 C 964.21,1119.23 971.03,1115.93 978.39,1114.26 C 978.19,1117.68 978.36,1122.01 975.11,1124.16 C 964.29,1131.06 952.45,1136.15 941.08,1142.06 C 933.62,1145.96 926.1,1149.75 918.67,1153.71 C 912.35,1157.04 905.68,1159.78 898.67,1161.2 C 899.26,1156.29 898.73,1149.52 903.92,1146.9 C 921.6,1138.39 939.81,1131.07 957.46,1122.49 z"
       id="path67"
       style="opacity:1;fill:#25282b" />
    <path
       d="M 730.36,1138.53 C 746.09,1131.39 761.49,1123.44 777.85,1117.79 C 777.27,1122.42 778.08,1128.65 773.46,1131.47 C 747.5,1144.38 719.85,1153.67 694.17,1167.16 C 690.08,1173.9 694.49,1182.64 690.31,1189.41 C 687.74,1193.41 682.45,1193.7 678.3,1195.04 C 679.7,1189.23 682.81,1183.93 683.57,1177.97 C 684.32,1172.43 680.45,1167.91 678.43,1163.11 C 695.58,1154.57 712.94,1146.48 730.36,1138.53 z"
       id="path69"
       style="opacity:1;fill:#25282b" />
    <path
       d="M 1204.66,1136.23 C 1205.23,1128.05 1212.9,1121.38 1221,1121.45 C 1225.24,1121.49 1229.55,1124.34 1230.62,1128.56 C 1232.06,1133.5 1231.09,1138.97 1228.26,1143.24 C 1223.74,1150.22 1216.29,1154.56 1208.94,1158.02 C 1213.6,1151.2 1218.11,1144.21 1221.33,1136.56 C 1215.77,1136.45 1210.21,1136.43 1204.66,1136.23 z"
       id="path71"
       style="opacity:1;fill:#25282b" />
    <path
       d="M 1315.35,1133.49 C 1319.38,1131.74 1324.86,1131.31 1327.96,1135.04 C 1331.8,1139.69 1331.41,1146.37 1330.09,1151.91 C 1327.5,1159.93 1319.31,1164.17 1311.79,1166.54 C 1315.31,1160.18 1318.77,1153.71 1320.83,1146.7 C 1315.48,1146.83 1310.13,1146.96 1304.78,1146.98 C 1305.69,1141.04 1309.76,1135.76 1315.35,1133.49 z"
       id="path73"
       style="opacity:1;fill:#25282b" />
    <path
       d="M 1158.77,1148.88 C 1167.48,1142.94 1176.92,1138.16 1186.54,1133.85 C 1187.32,1137.5 1191.01,1141.79 1188.34,1145.31 C 1179.29,1151.25 1169.38,1156.18 1158.77,1158.6 C 1158.75,1155.35 1158.76,1152.11 1158.77,1148.88 z"
       id="path75"
       style="opacity:1;fill:#25282b" />
    <path
       d="M 847.21,1151.44 C 848.65,1142.46 859.17,1135.91 867.75,1139.31 C 874.07,1142.04 875.07,1150.27 873.09,1156.12 C 869.95,1165.15 861.15,1170.83 852.36,1173.45 C 856.28,1166.69 860.48,1160.06 863.61,1152.88 C 858.14,1152.38 852.67,1151.94 847.21,1151.44 z"
       id="path77"
       style="opacity:1;fill:#25282b" />
    <path
       d="M 1066.16,1167.88 C 1082,1158.86 1097.97,1149.87 1115.05,1143.38 C 1115.07,1147.16 1115.05,1150.95 1114.97,1154.75 C 1098.94,1161.56 1084.44,1171.77 1067.71,1176.98 C 1067.18,1173.94 1066.67,1170.9 1066.16,1167.88 z"
       id="path79"
       style="opacity:1;fill:#25282b" />
    <path
       d="M 794.75,1145.8 C 799.98,1169.17 804.42,1192.73 810.35,1215.94 C 811.84,1221.42 812.56,1227.9 817.68,1231.37 C 824.41,1236.05 832.42,1238.55 840.26,1240.68 C 863.73,1245.91 887.36,1238.45 909.93,1232.5 C 904.12,1224.51 893.18,1226.36 884.95,1223.02 C 883.21,1217.16 883.62,1210.36 887.52,1205.43 C 890.51,1201.38 895.51,1199.82 900.12,1198.4 C 915.86,1193.71 932.97,1193.76 948.74,1198.32 C 953.48,1199.77 957.63,1204.66 956.48,1209.82 C 954.2,1219.91 947.57,1228.15 942.77,1237.1 C 953.74,1241.17 965.79,1239.21 976.56,1235.48 C 978.5,1218.66 975.24,1201.43 967.72,1186.3 C 972.36,1179.66 976.94,1172.99 981.61,1166.37 C 985.31,1177.13 986.73,1188.46 989.27,1199.51 C 991.57,1209.79 992.59,1220.57 990.5,1230.98 C 988.65,1240.1 984.17,1249.01 976.68,1254.76 C 965.51,1263.44 949.56,1264.98 936.73,1259.2 C 931.35,1257.04 926.27,1252.26 920.06,1253.86 C 900.29,1258.73 880.27,1263.03 859.91,1264.4 C 847.72,1263.98 835.54,1262.19 823.71,1259.2 C 813.49,1255.74 807.38,1245.98 802.62,1236.9 C 793.4,1242.82 784.44,1249.51 773.96,1253.07 C 768.86,1254.71 763.51,1256.19 758.11,1255.49 C 749.57,1254.47 741.75,1250.63 733.76,1247.7 C 727.14,1250.63 722.99,1257.45 715.95,1259.59 C 708.99,1259.81 703.8,1254.45 698.24,1251.1 C 694.42,1255.02 690.8,1259.16 686.62,1262.71 C 682.29,1266.88 675.74,1265.22 670.34,1265.5 C 675.18,1256.89 682.96,1250.38 687.63,1241.67 C 692.74,1231.87 694.34,1220.75 698.63,1210.62 C 700.58,1206.22 702.76,1201.69 706.5,1198.52 C 709.49,1195.98 712.91,1194.02 716.15,1191.83 C 719.83,1193.11 723.24,1195.43 725.08,1198.96 C 728.8,1205.61 728.75,1213.55 731.65,1220.5 C 733.61,1222.58 736.16,1223.98 738.63,1225.38 C 757.02,1234.92 779.81,1229.66 796.01,1218.05 C 794.95,1199.61 791.33,1181.43 790.05,1163.01 C 789.44,1156.87 792.55,1151.3 794.75,1145.8 M 705.24,1228.15 C 705.67,1232.69 710.36,1236.34 714.88,1235.59 C 719.27,1234.91 722.96,1230.58 722.41,1226.06 C 722.01,1223.46 721.51,1220.36 719.03,1218.91 C 715.69,1216.94 711.65,1217.08 707.93,1216.62 C 706.32,1220.23 704.73,1224.1 705.24,1228.15 z"
       id="path81"
       style="opacity:1;fill:#25282b" />
    <path
       d="M 91.5,1154.74 C 103.36,1155.67 115.24,1156.41 127.02,1158.07 C 131.18,1158.61 131.27,1163.64 131.49,1166.89 C 132.72,1197.7 136,1228.39 136.89,1259.21 C 150.28,1260.69 163.85,1259.5 177.04,1257.02 C 179.86,1254.54 179.15,1250.36 179.13,1247.02 C 176.88,1220.38 173.94,1193.8 171.61,1167.17 C 184.5,1166.79 197.38,1166.31 210.27,1166.55 C 211.63,1206.22 213.54,1245.92 212.68,1285.63 C 192.39,1289.93 172.62,1296.79 151.94,1299.16 C 138.29,1300.79 124.78,1303.57 111.1,1304.94 C 108.08,1304.42 107.86,1300.58 107.34,1298.18 C 102.98,1263.35 99.3,1228.44 95.27,1193.57 C 93.92,1180.64 91.68,1167.77 91.5,1154.74 z"
       id="path83"
       style="opacity:1;fill:#25282b" />
    <path
       d="M 1369.57,1155.12 C 1376.03,1165.62 1380.92,1176.97 1385.71,1188.3 C 1388.32,1194.33 1380.6,1199.01 1382.31,1205.1 C 1387.62,1229.28 1391.75,1255.26 1383.26,1279.22 C 1379.17,1270.73 1379.03,1261.14 1377.13,1252.07 C 1372.23,1226.4 1368.98,1200.41 1362.85,1174.99 C 1361.57,1167.65 1366.42,1161.3 1369.57,1155.12 z"
       id="path85"
       style="opacity:1;fill:#25282b" />
    <path
       d="M 1134.66,1174.22 C 1133.02,1167.6 1136.92,1161.54 1139.95,1156 C 1144.76,1177.97 1149.48,1199.95 1154.34,1221.91 C 1156.17,1228.84 1157.73,1236.63 1163.46,1241.51 C 1167.38,1243.75 1172.38,1243.19 1176.33,1241.27 C 1181.88,1238.53 1186.3,1234.08 1190.98,1230.13 C 1194.25,1234.37 1195.9,1240.41 1201.06,1242.82 C 1207.15,1244.79 1210.86,1238.16 1214.82,1234.8 C 1218.98,1236.37 1223.17,1238.3 1227.74,1238.1 C 1230.48,1234.57 1232.82,1230.76 1235.07,1226.91 C 1242.32,1232.48 1249.37,1238.79 1258.15,1241.85 C 1262.33,1243.38 1266.85,1243.53 1271.26,1243.16 C 1272.52,1237.79 1272.21,1232.07 1270,1226.99 C 1265.9,1217.26 1258.22,1209.74 1252.21,1201.22 C 1254.31,1196.02 1256.38,1190.8 1258.49,1185.6 C 1270.96,1197.42 1285.16,1209.6 1289.28,1227.08 C 1290.97,1236.06 1292.57,1245.98 1288.53,1254.58 C 1286.18,1259.89 1280.55,1262.75 1275.04,1263.52 C 1267.34,1264.55 1259.73,1262.56 1252.19,1261.26 C 1250.52,1261.01 1248.8,1260.57 1247.18,1261.17 C 1240.21,1263.29 1234.32,1268.38 1226.93,1269.18 C 1222.15,1268.59 1217.99,1265.81 1213.79,1263.65 C 1209.52,1264.79 1205.39,1266.6 1200.96,1266.97 C 1195.31,1266.45 1190.68,1262.77 1185.81,1260.22 C 1181.07,1263.14 1176.55,1266.76 1171.04,1268.11 C 1166.58,1269.28 1161.5,1268.03 1158.32,1264.64 C 1154.28,1260.46 1152.29,1254.82 1150.38,1249.45 C 1142.33,1225.02 1140.33,1199.2 1134.66,1174.22 z"
       id="path87"
       style="opacity:1;fill:#25282b" />
    <path
       d="M 1222.33,1173.21 C 1224.02,1167.89 1224.01,1161.4 1228.77,1157.65 C 1235.48,1159.51 1242.93,1160.97 1247.89,1166.29 C 1248.46,1172.28 1245.11,1177.74 1241.82,1182.48 C 1235.27,1179.5 1228.83,1176.28 1222.33,1173.21 z"
       id="path89"
       style="opacity:1;fill:#25282b" />
    <path
       d="M 1336.61,1173.02 C 1336.45,1167.08 1340.79,1162.5 1344.47,1158.37 C 1349.72,1176.19 1356.06,1193.77 1359.36,1212.11 C 1361.72,1225.31 1362.14,1239 1359.28,1252.17 C 1357.19,1262.35 1354.07,1272.96 1346.65,1280.62 C 1342.02,1285.6 1335.43,1288.27 1328.86,1289.48 C 1318.81,1291.17 1308.54,1289.42 1298.9,1286.51 C 1313.56,1284.03 1328.32,1277.63 1337.59,1265.59 C 1343.76,1257.8 1346.05,1247.71 1346.74,1238 C 1347.45,1227.31 1346.12,1216.63 1344.43,1206.11 C 1342.67,1194.88 1337.2,1184.46 1336.61,1173.02 z"
       id="path91"
       style="opacity:1;fill:#25282b" />
    <path
       d="M 1266.53,1163.45 C 1290.05,1171.84 1310.91,1187.05 1326.78,1206.27 C 1336.36,1218.5 1340.61,1234.66 1338.45,1250.04 C 1327.93,1236.04 1320.33,1219.76 1307.46,1207.61 C 1299.51,1199.6 1289.53,1194.16 1280.4,1187.69 C 1272.7,1181.8 1269.93,1172.07 1266.53,1163.45 z"
       id="path93"
       style="opacity:1;fill:#25282b" />
    <path
       d="M 1120.27,1210.89 C 1120.11,1205.71 1122.37,1200.86 1123.81,1195.99 C 1136.41,1209.02 1144.63,1227.51 1141.8,1245.85 C 1139.84,1260.26 1128.69,1271.65 1116.27,1278.19 C 1105.25,1283.9 1092.29,1286.14 1080.06,1283.68 C 1070.98,1281.66 1063.46,1275.11 1058.81,1267.24 C 1055.57,1261.95 1053.95,1255.89 1052.59,1249.9 C 1048.73,1231.57 1054.32,1211.38 1067.64,1198.1 C 1066.44,1210.67 1062.76,1223.19 1064.51,1235.89 C 1065.56,1242.69 1068.2,1249.99 1074.43,1253.68 C 1082.85,1258.83 1093.26,1257.79 1102.59,1256.46 C 1109.43,1255.06 1116.57,1253.48 1122.35,1249.34 C 1127.74,1245.52 1129.45,1238.21 1128.21,1232 C 1126.93,1224.49 1122.44,1218.09 1120.27,1210.89 z"
       id="path95"
       style="opacity:1;fill:#25282b" />
    <path
       d="M 674.35,1199.07 C 676.27,1199.95 678.19,1200.84 680.11,1201.75 C 679.78,1203.27 679.47,1204.83 679.16,1206.39 C 677.49,1206.88 675.82,1207.39 674.16,1207.9 C 674.2,1204.95 674.27,1202.01 674.35,1199.07 z"
       id="path97"
       style="opacity:1;fill:#25282b" />
    <path
       d="M 1085.75,1222.96 C 1085.62,1214.84 1086.6,1206.73 1088.77,1198.91 C 1094.46,1201.93 1101.12,1203.63 1105.68,1208.42 C 1108.14,1210.92 1108.12,1214.77 1106.8,1217.84 C 1105.51,1221.58 1104.05,1225.26 1102.56,1228.92 C 1096.9,1227.08 1091.3,1225.08 1085.75,1222.96 z"
       id="path99"
       style="opacity:1;fill:#25282b" />
    <path
       d="M 962.56,1282.77 C 967.96,1280.13 972.62,1276.29 977.32,1272.59 C 984.06,1275.53 990.62,1278.87 997.13,1282.3 C 993.93,1289.56 989.64,1296.26 984.9,1302.6 C 979.04,1299.75 973.47,1296.02 967.1,1294.44 C 961.74,1296.09 958.28,1300.79 954.08,1304.19 C 948.37,1301.15 941.92,1298.48 938.15,1292.97 C 938.22,1286.93 942.39,1282.14 945.84,1277.58 C 951.84,1277.73 956.91,1281.24 962.56,1282.77 z"
       id="path101"
       style="opacity:1;fill:#25282b" />
    <path
       d="M 1317.54,1308.65 C 1330.07,1301.25 1343.05,1294.59 1356.59,1289.26 C 1357.35,1291.8 1357.99,1294.37 1358.59,1296.98 C 1345.72,1304.49 1332.59,1311.69 1318.65,1317.01 C 1318.28,1314.21 1317.9,1311.42 1317.54,1308.65 z"
       id="path103"
       style="opacity:1;fill:#25282b" />
    <path
       d="M 110.76,1331.91 C 129.07,1333.99 146.3,1340.87 163.95,1345.77 C 197.83,1355.47 231.72,1365.11 265.43,1375.37 C 276.4,1378.78 287.7,1381.26 298.33,1385.67 C 301.24,1386.76 302.42,1389.95 303.51,1392.61 C 305.86,1399.65 307.94,1406.78 310.41,1413.79 C 312.4,1419.45 313.86,1425.38 313.67,1431.44 C 277.7,1453.34 239.68,1471.64 203.62,1493.41 C 205.63,1500.88 208.71,1508 212.17,1514.9 C 221.06,1532.19 229.25,1549.82 237.63,1567.37 C 240.1,1572.62 242.85,1577.74 245.81,1582.75 C 265.23,1574.17 283.94,1564.07 303.31,1555.36 C 307.18,1553.78 310.89,1551.67 315.02,1550.83 C 316.45,1550.42 317.85,1551.21 318.39,1552.58 C 323.2,1561.7 328.27,1570.83 330.96,1580.86 C 309.19,1592.95 286.15,1602.64 264.89,1615.66 C 284.6,1644.61 305,1673.1 326.18,1700.99 C 348.63,1688.64 369.39,1673.52 391.42,1660.5 C 393.88,1659.1 397.65,1657.43 399.81,1660.19 C 430,1694.06 459.51,1728.53 488.48,1763.44 C 490.41,1766.08 493.28,1769.72 491.02,1773.02 C 485.24,1781.42 477.51,1788.2 470.88,1795.9 C 455.96,1812.99 441.05,1830.11 425.91,1847 C 423.86,1849.43 420.12,1848.75 417.92,1846.93 C 332.2,1771.43 257.83,1682.29 203.3,1581.69 C 172.87,1525.5 149.06,1465.9 130.01,1404.97 C 124.39,1387.15 119.04,1369.25 114.55,1351.12 C 113.01,1344.77 111.61,1338.39 110.76,1331.91 M 167.04,1388.5 C 173.33,1413.04 180.75,1437.27 188.44,1461.4 C 217.93,1447.29 246.02,1430.45 275.4,1416.11 C 275.3,1414.52 275.21,1412.96 275.12,1411.42 C 239.08,1403.86 203.39,1394.57 167.04,1388.5 M 357.27,1723.27 C 354.27,1727.72 357.69,1732.89 360.48,1736.5 C 372.66,1751.58 385.85,1765.8 398.67,1780.33 C 405.29,1787.72 411.51,1795.58 419.4,1801.7 C 427.41,1790.88 435.74,1780.26 442.89,1768.83 C 444.67,1766.43 443.65,1763.25 441.74,1761.29 C 437.28,1756.42 432.42,1751.93 427.75,1747.27 C 412.72,1732.23 398.51,1716.32 382.37,1702.44 C 373.76,1709.03 363.92,1714.49 357.27,1723.27 z"
       id="path105"
       style="opacity:1;fill:#25282b" />
    <path
       d="M 869.9,1380.2 C 874.08,1380.67 879.14,1379.31 882.63,1382.27 C 891.74,1393.57 892.19,1410.56 884.99,1422.94 C 881.37,1425.47 876.68,1424.31 872.57,1424.34 C 873.82,1409.62 874.37,1394.46 869.9,1380.2 z"
       id="path107"
       style="opacity:1;fill:#25282b" />
    <path
       d="M 1174.34,1436.36 C 1166.54,1422.52 1170.74,1405.37 1178.98,1392.75 C 1182.91,1392.7 1186.85,1392.64 1190.79,1392.66 C 1186.28,1406.9 1185.28,1421.96 1185.79,1436.81 C 1181.97,1436.64 1178.15,1436.47 1174.34,1436.36 z"
       id="path109"
       style="opacity:1;fill:#25282b" />
    <path
       d="M 875.15,1502.09 C 878.31,1487.4 878.23,1471.93 874.02,1457.47 C 878.45,1458.01 884.34,1456.35 887.55,1460.36 C 895.27,1472.09 895.71,1488.81 887.24,1500.26 C 883.7,1502.57 879.14,1501.63 875.15,1502.09 z"
       id="path111"
       style="opacity:1;fill:#25282b" />
    <path
       d="M 1169.23,1470.95 C 1173.07,1470.67 1176.91,1470.4 1180.76,1470.16 C 1176.94,1484.45 1175.14,1499.39 1176.71,1514.16 C 1173.08,1513.96 1169.46,1513.69 1165.84,1513.34 C 1157.06,1500.42 1161.12,1483.15 1169.23,1470.95 z"
       id="path113"
       style="opacity:1;fill:#25282b" />
    <path
       d="M 89.27,1527.36 C 99.17,1522.43 109.07,1517.1 120.01,1514.84 C 129,1531.8 138.68,1548.5 145.29,1566.58 C 135.42,1571.48 126.04,1577.83 115.07,1580.04 C 106.72,1562.35 97.19,1545.24 89.27,1527.36 z"
       id="path115"
       style="opacity:1;fill:#25282b" />
    <path
       d="M 867.7,1524.61 C 872.08,1524.8 876.49,1525.08 880.76,1526.19 C 888.9,1537.71 890.79,1554.04 883.51,1566.43 C 880.69,1571.01 874.58,1569.76 870.05,1570.37 C 870.49,1559.52 873.8,1548.57 871.16,1537.78 C 870.14,1533.35 868.87,1528.99 867.7,1524.61 z"
       id="path117"
       style="opacity:1;fill:#25282b" />
    <path
       d="M 1168.92,1539.87 C 1171.81,1536.3 1176.91,1537.14 1180.97,1536.73 C 1176.96,1551.25 1175.73,1566.47 1177.01,1581.47 C 1173.11,1581.54 1169.22,1581.53 1165.33,1581.53 C 1158.86,1568.38 1159.87,1551.57 1168.92,1539.87 z"
       id="path119"
       style="opacity:1;fill:#25282b" />
    <path
       d="M 123.35,1591.95 C 132.47,1587.43 141.71,1583.16 151.06,1579.13 C 157.83,1586.61 162.85,1595.4 167.86,1604.09 C 173.03,1613.12 179.58,1621.48 182.92,1631.45 C 173.74,1636.36 165.01,1642.36 154.89,1645.24 C 144.74,1627.26 132.12,1610.71 123.35,1591.95 z"
       id="path121"
       style="opacity:1;fill:#25282b" />
    <path
       d="M 1666.3,1676.99 C 1679.92,1685.96 1690.91,1698.14 1702.78,1709.18 C 1710.78,1716.22 1718.22,1723.87 1726.46,1730.66 C 1733.93,1737.1 1741.37,1743.64 1747.84,1751.12 C 1734.09,1773.01 1714.75,1790.46 1697.97,1809.9 C 1691.86,1816.82 1686.8,1824.64 1680.12,1831.05 C 1671.71,1839.33 1662.87,1847.16 1654.83,1855.81 C 1643.98,1866.66 1632.12,1876.43 1620.84,1886.81 C 1614.05,1893.5 1605.72,1898.26 1598.49,1904.41 C 1586.73,1913.74 1575.09,1923.26 1562.41,1931.34 C 1523.12,1958.79 1481.3,1982.54 1437.92,2002.91 C 1393.18,2023.83 1346.46,2040.38 1298.88,2053.56 C 1232.64,2071.81 1164.58,2083.16 1096.15,2088.99 C 1098.75,2080.1 1102.22,2071.51 1106.13,2063.13 C 1128.24,2013.09 1150.36,1963.05 1171.73,1912.7 C 1173.02,1909.18 1176.43,1906.75 1180.14,1906.53 C 1196.48,1905.08 1212.81,1903.34 1229.04,1900.96 C 1236.33,1913.26 1239.46,1927.35 1244.63,1940.55 C 1252.2,1961.16 1260.27,1981.58 1267.66,2002.26 C 1270.4,2009.21 1272.07,2016.89 1276.96,2022.76 C 1285.15,2022.05 1292.86,2019.06 1300.6,2016.5 C 1322.7,2009.07 1344.81,2001.67 1366.91,1994.23 C 1362.89,1967.73 1351.4,1943.21 1345.27,1917.24 C 1356.04,1912.72 1366.62,1907.45 1378.1,1904.93 C 1387,1928.82 1394.73,1953.16 1404.83,1976.59 C 1436.6,1961.17 1468.22,1945.44 1499.59,1929.2 C 1478.69,1890.62 1453.31,1854.72 1431.59,1816.61 C 1438.66,1809.32 1446.34,1802.65 1453.92,1795.91 C 1455.89,1794.05 1458.2,1792.47 1461.02,1792.39 C 1465.34,1797.81 1468.71,1803.88 1472.25,1809.83 C 1481.34,1825.24 1491.51,1839.98 1500.72,1855.32 C 1510.34,1871.97 1520.07,1888.58 1530.83,1904.53 C 1544.45,1896.66 1556.79,1886.85 1569.2,1877.25 C 1573.17,1874.18 1577.02,1870.93 1581.34,1868.36 C 1584.15,1866.7 1586.64,1864.56 1588.59,1861.95 C 1580.72,1847.35 1570.4,1834.29 1561.45,1820.37 C 1557.12,1813.36 1550.8,1807.4 1548.61,1799.24 C 1553.5,1792.68 1559.59,1787.19 1565.45,1781.53 C 1570.95,1776.33 1575.71,1770.42 1581.01,1765.02 C 1592.01,1753.7 1603.5,1742.85 1613.93,1730.99 C 1631.49,1713.08 1648.18,1694.33 1666.3,1676.99 M 1642.73,1750.69 C 1627.91,1763.52 1614.36,1777.73 1599.62,1790.65 C 1596.85,1793.17 1593.89,1795.56 1591.58,1798.54 C 1589.92,1800.5 1590.86,1803.08 1592,1805.05 C 1598.18,1816.84 1605.96,1827.68 1613.34,1838.73 C 1627.08,1829.57 1637.63,1816.71 1649.07,1805.01 C 1660.05,1793.68 1670.84,1782.17 1682.11,1771.13 C 1687.49,1765.72 1693.36,1760.62 1697.32,1754 C 1689.27,1743.82 1678.63,1736.21 1669.74,1726.86 C 1659.4,1733.19 1651.84,1742.87 1642.73,1750.69 M 1172.63,2003.68 C 1166.44,2016.48 1158.45,2028.5 1154.16,2042.15 C 1166.15,2041.04 1178.01,2038.99 1189.92,2037.28 C 1203.78,2034.94 1217.97,2034.24 1231.52,2030.25 C 1232.06,2019.08 1226.69,2008.98 1223.27,1998.67 C 1216.86,1980.4 1211.91,1961.58 1203.72,1943.98 C 1192.26,1963.3 1183.04,1983.81 1172.63,2003.68 z"
       id="path123"
       style="opacity:1;fill:#25282b" />
    <path
       d="M 509.48,1708.07 C 519.4,1714.81 528.63,1722.49 537.77,1730.26 C 542.01,1733.2 545.55,1737.45 545.71,1742.86 C 548.86,1781.25 552.9,1819.57 556.32,1857.95 C 557.69,1872.46 558.3,1887.22 562.12,1901.36 C 586.77,1869.22 608.47,1834.96 632.08,1802.07 C 642.24,1804.97 651.38,1810.45 660.11,1816.26 C 650.83,1834.61 640.45,1852.37 630.14,1870.16 C 621.69,1884.44 613.68,1898.98 605.3,1913.3 C 601.83,1919.35 598.58,1925.58 596.39,1932.23 C 632.63,1950.57 668.77,1969.11 705.17,1987.14 C 718.57,1965 728.14,1940.82 741.24,1918.51 C 753.08,1920.94 764.62,1924.66 775.97,1928.78 C 769.21,1948.29 760.12,1966.87 751.93,1985.8 C 750.24,1989.69 749.62,1993.92 749.1,1998.12 C 775.01,2007.19 799.99,2018.72 825.98,2027.58 C 832.21,2003.04 837.11,1978.18 844.03,1953.82 C 856.51,1953.39 869.05,1953.5 881.45,1955.14 C 877.54,1980.7 870.11,2005.64 867.47,2031.41 C 892.9,2036.46 918.5,2040.57 944.07,2044.81 C 948.56,2021.22 950.02,1997.21 953.42,1973.46 C 965.35,1971.72 977.52,1971.15 989.47,1972.97 C 988.55,1992.86 984.8,2012.48 982.28,2032.21 C 979.87,2049.27 977.9,2066.4 975.07,2083.4 C 932.02,2083.51 889.22,2076.98 847.15,2068.33 C 836.41,2066.48 825.57,2065.06 815.05,2062.19 C 810.28,2060.97 805.73,2059.05 800.98,2057.81 C 723.52,2036.2 648.75,2004.97 578.97,1964.98 C 562.76,1955.69 546.95,1945.71 531.05,1935.9 C 507.33,1921.06 483.95,1905.51 462.47,1887.52 C 469.7,1879.21 475.34,1869.18 484.79,1863.07 C 496.95,1867.46 506.96,1876.44 519.55,1879.83 C 519.48,1851.1 516.68,1822.49 514.42,1793.88 C 512.47,1772.97 512.04,1751.96 510.56,1731.03 C 510.05,1723.38 509.68,1715.72 509.48,1708.07 z"
       id="path125"
       style="opacity:1;fill:#25282b" />
    <path
       d="M 1028.32,1918.29 C 1039.14,1916.14 1050.24,1916.07 1061.22,1916.61 C 1062.33,1952.81 1058.68,1988.92 1058.55,2025.11 C 1058.5,2029.38 1057.81,2033.62 1057.63,2037.91 C 1056.8,2053.41 1057.44,2069.01 1055.52,2084.45 C 1044.63,2084.6 1033.75,2084.81 1022.87,2084.69 C 1021.59,2075.15 1022.87,2065.56 1023.11,2056.01 C 1024.04,2029 1023.6,2001.95 1025.43,1974.98 C 1026.67,1956.09 1025.42,1937.05 1028.32,1918.29 z"
       id="path127"
       style="opacity:1;fill:#25282b" />
    <path
       d="M 1359.52,2079.27 C 1375.56,2073.26 1391.43,2066.81 1407.61,2061.18 C 1414.53,2071.68 1420.08,2083 1426.47,2093.82 C 1422.36,2096.49 1418.07,2098.93 1413.39,2100.48 C 1400.2,2104.95 1387.37,2110.37 1374.18,2114.84 C 1368.78,2103.23 1361.36,2092.19 1359.52,2079.27 z"
       id="path129"
       style="opacity:1;fill:#25282b" />
    <path
       d="M 1294.09,2099.54 C 1312.11,2095.51 1329.28,2087.71 1347.82,2086.11 C 1353.29,2096.56 1359.58,2106.72 1363.07,2118.08 C 1344.46,2123.21 1326.12,2129.58 1307.01,2132.69 C 1302.29,2121.82 1296.02,2111.39 1294.09,2099.54 z"
       id="path131"
       style="opacity:1;fill:#25282b" />
  </g>
</svg>
